<svg width="12" height="12" viewBox="0 0 12 12" fill="none" xmlns="http://www.w3.org/2000/svg">
<g clip-path="url(#clip0_902_24898)">
<path fill-rule="evenodd" clip-rule="evenodd" d="M6 1C4.34315 1 3 2.34315 3 4C3 5.65685 4.34315 7 6 7C7.65685 7 9 5.65685 9 4C9 2.34315 7.65685 1 6 1ZM2 4C2 1.79086 3.79086 0 6 0C8.20914 0 10 1.79086 10 4C10 6.20914 8.20914 8 6 8C3.79086 8 2 6.20914 2 4Z" fill="white"/>
<path fill-rule="evenodd" clip-rule="evenodd" d="M7.82925 6.44434C8.10299 6.40802 8.35435 6.60049 8.39067 6.87424L8.99567 11.4342C9.02092 11.6246 8.93497 11.8125 8.7745 11.9179C8.61403 12.0233 8.40739 12.0275 8.24276 11.9287L6.00001 10.5831L3.75726 11.9287C3.59262 12.0275 3.38596 12.0233 3.22549 11.9179C3.06502 11.8125 2.97909 11.6245 3.00436 11.4342L3.60936 6.87917C3.64572 6.60543 3.89711 6.41299 4.17084 6.44935C4.44458 6.48571 4.63702 6.73709 4.60066 7.01083L4.13223 10.5376L5.74276 9.57125C5.90111 9.47625 6.09892 9.47625 6.25726 9.57125L7.86795 10.5377L7.39936 7.00576C7.36304 6.73202 7.55551 6.48066 7.82925 6.44434Z" fill="white"/>
</g>
<defs>
<clipPath id="clip0_902_24898">
<rect width="12" height="12" fill="white"/>
</clipPath>
</defs>
</svg>
