<svg width="17" height="17" viewBox="0 0 17 17" fill="none" xmlns="http://www.w3.org/2000/svg">
<g id="Icons/Feather/help-circle" clip-path="url(#clip0_480_16387)">
<path id="Vector (Stroke)" fill-rule="evenodd" clip-rule="evenodd" d="M8.43237 2.10811C4.93954 2.10811 2.10804 4.93961 2.10804 8.43243C2.10804 11.9253 4.93954 14.7568 8.43237 14.7568C11.9252 14.7568 14.7567 11.9253 14.7567 8.43243C14.7567 4.93961 11.9252 2.10811 8.43237 2.10811ZM0.702637 8.43243C0.702637 4.16342 4.16335 0.702705 8.43237 0.702705C12.7014 0.702705 16.1621 4.16342 16.1621 8.43243C16.1621 12.7014 12.7014 16.1622 8.43237 16.1622C4.16335 16.1622 0.702637 12.7014 0.702637 8.43243Z" fill="white"/>
<path id="Vector (Stroke)_2" fill-rule="evenodd" clip-rule="evenodd" d="M8.61383 5.63871C8.28671 5.5826 7.95028 5.64408 7.66414 5.81224C7.378 5.98041 7.16061 6.24442 7.05047 6.55752C6.92168 6.92362 6.5205 7.116 6.1544 6.98721C5.7883 6.85843 5.59592 6.45724 5.7247 6.09114C5.94498 5.46496 6.37976 4.93693 6.95205 4.6006C7.52433 4.26426 8.19718 4.14132 8.85143 4.25354C9.50567 4.36576 10.0991 4.7059 10.5266 5.21373C10.954 5.72145 11.1879 6.36402 11.187 7.02767C11.1867 8.10306 10.3894 8.81322 9.82008 9.1928C9.51396 9.39688 9.21284 9.54693 8.99102 9.64552C8.87911 9.69526 8.78488 9.733 8.71698 9.75887C8.68297 9.77182 8.65539 9.78186 8.63532 9.789L8.61092 9.79755L8.60314 9.8002L8.60041 9.80113L8.59933 9.80149C8.59912 9.80156 8.59845 9.80178 8.37624 9.13514L8.59845 9.80178C8.23027 9.92451 7.83232 9.72553 7.70959 9.35735C7.58695 8.98942 7.78558 8.59175 8.15329 8.46874L8.15239 8.46904C8.15246 8.46902 8.15252 8.46901 8.15329 8.46874L8.1645 8.46481C8.17531 8.46096 8.19303 8.45454 8.21666 8.44553C8.26404 8.42748 8.33451 8.39934 8.42023 8.36124C8.59368 8.28415 8.81959 8.1707 9.0405 8.02343C9.52508 7.70037 9.78164 7.35669 9.78164 7.02703L9.78164 7.02598C9.78214 6.69408 9.66515 6.37272 9.45141 6.11881C9.23766 5.8649 8.94095 5.69482 8.61383 5.63871Z" fill="white"/>
<path id="Vector (Stroke)_3" fill-rule="evenodd" clip-rule="evenodd" d="M7.72998 11.9459C7.72998 11.5579 8.04459 11.2432 8.43268 11.2432H8.43971C8.8278 11.2432 9.14241 11.5579 9.14241 11.9459C9.14241 12.334 8.8278 12.6486 8.43971 12.6486H8.43268C8.04459 12.6486 7.72998 12.334 7.72998 11.9459Z" fill="white"/>
</g>
<defs>
<clipPath id="clip0_480_16387">
<rect width="16.8649" height="16.8649" fill="white"/>
</clipPath>
</defs>
</svg>
