<svg width="38" height="38" viewBox="0 0 38 38" fill="none" xmlns="http://www.w3.org/2000/svg">
<path fill-rule="evenodd" clip-rule="evenodd" d="M7.21742 0.619141C3.23135 0.619141 0 3.85048 0 7.83656V29.8929C0 33.8789 3.23136 37.1103 7.21744 37.1103H30.3142C34.3003 37.1103 37.5317 33.8789 37.5317 29.8929V7.83657C37.5317 3.85049 34.3003 0.619141 30.3142 0.619141H7.21742ZM21.5321 14.6543C19.2067 14.6543 17.3216 16.5394 17.3216 18.8648C17.3216 21.1902 19.2067 23.0753 21.5321 23.0753H27.5463C29.8717 23.0753 31.7568 21.1902 31.7568 18.8648C31.7568 16.5394 29.8717 14.6543 27.5463 14.6543H21.5321Z" fill="black"/>
</svg>
