<svg width="17" height="17" viewBox="0 0 17 17" fill="none" xmlns="http://www.w3.org/2000/svg">
<g id="Icons/Feather/box" clip-path="url(#clip0_480_16386)">
<path id="Vector (Stroke)" fill-rule="evenodd" clip-rule="evenodd" d="M8.12002 1.64788C8.11981 1.64798 8.1196 1.64808 8.11939 1.64819L2.49933 4.45822L2.49777 4.459C2.3807 4.51717 2.28217 4.60686 2.21327 4.71796C2.1444 4.82903 2.10787 4.9571 2.10777 5.08778C2.10777 5.08774 2.10777 5.08783 2.10777 5.08778V11.7822C2.10686 11.9131 2.14255 12.0417 2.21084 12.1535C2.27901 12.265 2.37696 12.3554 2.49366 12.4143C2.49347 12.4142 2.49386 12.4144 2.49366 12.4143L8.11392 15.2244C8.21155 15.2733 8.31942 15.2988 8.42858 15.2988C8.53775 15.2988 8.64541 15.2734 8.74304 15.2245L14.3649 12.4136L14.3664 12.4128C14.4835 12.3547 14.582 12.265 14.6509 12.1539C14.7198 12.0428 14.7563 11.9147 14.7564 11.7839V5.08792C14.7563 4.95719 14.7198 4.82907 14.6509 4.71796C14.582 4.60686 14.4835 4.51718 14.3664 4.459L14.3649 4.45822L8.7448 1.64819C8.74459 1.64808 8.74438 1.64798 8.74417 1.64788C8.64717 1.5998 8.54036 1.57478 8.43209 1.57478C8.32383 1.57478 8.21702 1.5998 8.12002 1.64788ZM9.0575 1.0189L9.3702 0.389605C9.0787 0.244753 8.75761 0.169373 8.43209 0.169373C8.10658 0.169373 7.78549 0.244753 7.49399 0.389605L7.49243 0.390381L1.87237 3.20042C1.87208 3.20056 1.87179 3.2007 1.8715 3.20085C1.52065 3.37539 1.2254 3.64426 1.01888 3.9773C0.812186 4.31061 0.702574 4.69498 0.702366 5.08717L0.702366 11.7751C0.700138 12.167 0.807226 12.5519 1.01163 12.8863C1.2165 13.2216 1.51098 13.4929 1.86184 13.6697L1.86378 13.6707L7.4852 16.4814C7.77808 16.6279 8.10108 16.7042 8.42858 16.7042C8.75601 16.7042 9.07893 16.628 9.37176 16.4815C9.37169 16.4815 9.37183 16.4814 9.37176 16.4815L14.9918 13.6714C14.9921 13.6713 14.9923 13.6712 14.9925 13.6711C15.3434 13.4965 15.6388 13.2276 15.8453 12.8945C16.052 12.5612 16.1616 12.1769 16.1618 11.7847V5.08755C16.1616 4.69535 16.052 4.31061 15.8453 3.9773C15.6388 3.64427 15.3436 3.3754 14.9927 3.20086C14.9924 3.20071 14.9921 3.20056 14.9918 3.20042L9.37176 0.390381L9.0575 1.0189Z" fill="white"/>
<path id="Vector (Stroke)_2" fill-rule="evenodd" clip-rule="evenodd" d="M1.00159 4.01437C1.17515 3.66725 1.59724 3.52655 1.94436 3.70011L8.43227 6.94406L14.9202 3.70011C15.2673 3.52655 15.6894 3.66725 15.8629 4.01437C16.0365 4.36149 15.8958 4.78358 15.5487 4.95714L8.74652 8.35822C8.54869 8.45714 8.31584 8.45714 8.11801 8.35822L1.31584 4.95714C0.968725 4.78358 0.828026 4.36149 1.00159 4.01437Z" fill="white"/>
<path id="Vector (Stroke)_3" fill-rule="evenodd" clip-rule="evenodd" d="M8.43244 7.027C8.82053 7.027 9.13514 7.34161 9.13514 7.72971V15.9935C9.13514 16.3816 8.82053 16.6962 8.43244 16.6962C8.04435 16.6962 7.72974 16.3816 7.72974 15.9935V7.72971C7.72974 7.34161 8.04435 7.027 8.43244 7.027Z" fill="white"/>
</g>
<defs>
<clipPath id="clip0_480_16386">
<rect width="16.8649" height="16.8649" fill="white"/>
</clipPath>
</defs>
</svg>
