<svg width="23" height="20" viewBox="0 0 23 20" fill="none" xmlns="http://www.w3.org/2000/svg">
<path fill-rule="evenodd" clip-rule="evenodd" d="M8.76035 2.41189C7.87343 1.93961 6.85029 1.78921 5.86498 1.98627C4.87967 2.18333 3.99308 2.71569 3.35603 3.49276C2.71899 4.26982 2.37085 5.24361 2.37085 6.24843C2.37085 9.24339 4.601 12.102 7.04851 14.3047C8.24837 15.3846 9.45182 16.2635 10.357 16.873C10.8088 17.1772 11.1844 17.413 11.4455 17.5719C11.4501 17.5747 11.4546 17.5774 11.4591 17.5802C11.4636 17.5774 11.4682 17.5747 11.4727 17.5719C11.7339 17.413 12.1094 17.1772 12.5612 16.873C13.4664 16.2635 14.6699 15.3846 15.8697 14.3047C18.3172 12.102 20.5474 9.24339 20.5474 6.24843C20.5474 5.24361 20.1992 4.26982 19.5622 3.49276C18.9251 2.71569 18.0386 2.18333 17.0532 1.98627C16.0679 1.78921 15.0448 1.93961 14.1579 2.41189C13.271 2.88417 12.5751 3.64915 12.1886 4.57667L11.4591 4.27272L10.7296 4.57667C10.3432 3.64915 9.64726 2.88417 8.76035 2.41189ZM11.4591 2.69214C10.9413 2.00179 10.2754 1.42795 9.50323 1.01679C8.29381 0.372774 6.89861 0.167679 5.55501 0.436399C4.21141 0.705119 3.00241 1.43105 2.13371 2.49069C1.26502 3.55033 0.790283 4.87822 0.790283 6.24843C0.790283 9.97087 3.49941 13.237 5.99117 15.4796C7.26095 16.6224 8.52713 17.5463 9.4742 18.184C9.9485 18.5034 10.3447 18.7522 10.6238 18.9221C10.7634 19.0071 10.8739 19.0723 10.9503 19.1169C10.9885 19.1392 11.0183 19.1563 11.0389 19.168L11.063 19.1817L11.0698 19.1856L11.0718 19.1867L11.0725 19.1871C11.0728 19.1872 11.073 19.1873 11.4591 18.4978L11.073 19.1873C11.3129 19.3217 11.6054 19.3217 11.8452 19.1873L11.4591 18.4978C11.8452 19.1873 11.8455 19.1872 11.8457 19.1871L11.8464 19.1867L11.8485 19.1856L11.8552 19.1817L11.8793 19.168C11.8999 19.1563 11.9297 19.1392 11.9679 19.1169C12.0444 19.0723 12.1548 19.0071 12.2944 18.9221C12.5735 18.7522 12.9697 18.5034 13.444 18.184C14.3911 17.5463 15.6573 16.6224 16.9271 15.4796C19.4188 13.237 22.1279 9.97087 22.1279 6.24843C22.1279 4.87822 21.6532 3.55033 20.7845 2.49069C19.9158 1.43105 18.7068 0.705119 17.3632 0.436399C16.0196 0.167679 14.6244 0.372774 13.415 1.01679C12.6429 1.42795 11.9769 2.00179 11.4591 2.69214Z" fill="#FA0C00"/>
</svg>
