<?xml version="1.0" encoding="utf-8"?>
<!-- Generator: Adobe Illustrator 26.1.0, SVG Export Plug-In . SVG Version: 6.00 Build 0)  -->
<svg version="1.1" id="Layer_1" xmlns="http://www.w3.org/2000/svg" xmlns:xlink="http://www.w3.org/1999/xlink" x="0px" y="0px"
	 viewBox="0 0 23 20" style="enable-background:new 0 0 23 20;" xml:space="preserve">
<style type="text/css">
	.st0{fill-rule:evenodd;clip-rule:evenodd;fill:#FA0C00;}
	.st1{fill:#FA0C00;}
</style>
<path class="st0" d="M8.8,2.4C7.9,1.9,6.9,1.8,5.9,2S4,2.7,3.4,3.5c-0.6,0.8-1,1.8-1,2.8c0,3,2.2,5.9,4.7,8.1c1.2,1.1,2.4,2,3.3,2.6
	c0.5,0.3,0.8,0.5,1.1,0.7c0,0,0,0,0,0c0,0,0,0,0,0c0.3-0.2,0.6-0.4,1.1-0.7c0.9-0.6,2.1-1.5,3.3-2.6c2.4-2.2,4.7-5.1,4.7-8.1
	c0-1-0.3-2-1-2.8C18.9,2.7,18,2.2,17.1,2c-1-0.2-2,0-2.9,0.4s-1.6,1.2-2,2.2l-0.7-0.3l-0.7,0.3C10.3,3.6,9.6,2.9,8.8,2.4z M11.5,2.7
	C10.9,2,10.3,1.4,9.5,1C8.3,0.4,6.9,0.2,5.6,0.4S3,1.4,2.1,2.5C1.3,3.6,0.8,4.9,0.8,6.2c0,3.7,2.7,7,5.2,9.2
	c1.3,1.1,2.5,2.1,3.5,2.7c0.5,0.3,0.9,0.6,1.1,0.7c0.1,0.1,0.3,0.2,0.3,0.2c0,0,0.1,0,0.1,0.1l0,0l0,0l0,0l0,0c0,0,0,0,0.4-0.7
	l-0.4,0.7c0.2,0.1,0.5,0.1,0.8,0l-0.4-0.7c0.4,0.7,0.4,0.7,0.4,0.7l0,0l0,0l0,0l0,0c0,0,0.1,0,0.1-0.1c0.1,0,0.2-0.1,0.3-0.2
	c0.3-0.2,0.7-0.4,1.1-0.7c0.9-0.6,2.2-1.6,3.5-2.7c2.5-2.2,5.2-5.5,5.2-9.2c0-1.4-0.5-2.7-1.3-3.8s-2.1-1.8-3.4-2.1
	C16,0.2,14.6,0.4,13.4,1C12.6,1.4,12,2,11.5,2.7z"/>
<path class="st1" d="M16.1,1.3c-2,0-3.3,0.9-4.1,2.2c-0.2,0.1-0.4,0.2-0.6,0.3c-0.3-0.3-0.7-0.6-1.1-0.9C9.6,2,8.4,1.4,6.8,1.4
	C2.4,1.4,1,6,2.6,9c0.1,1.9,1.2,3.7,3.3,4.3c0.3,1.2,1.1,2.3,2.2,3c0.8,0.9,2,1.5,3.5,1.5c2.4,0,3.9-1.4,4.5-3.1
	c0.8-0.4,1.4-1.1,1.8-1.8c1.5-0.8,2.3-2.4,2.5-4C21.9,5.8,20.5,1.3,16.1,1.3z"/>
</svg>
