<svg width="12" height="11" viewBox="0 0 12 11" fill="none" xmlns="http://www.w3.org/2000/svg">
<path d="M5.9295 0.525159C5.98321 0.359861 6.21706 0.359861 6.27077 0.525159L7.42942 4.09112C7.45344 4.16504 7.52233 4.21509 7.60005 4.21509H11.3495C11.5233 4.21509 11.5956 4.4375 11.455 4.53966L8.4216 6.74354C8.35871 6.78923 8.3324 6.87021 8.35642 6.94413L9.51507 10.5101C9.56878 10.6754 9.37959 10.8128 9.23898 10.7107L6.20559 8.5068C6.14271 8.46111 6.05756 8.46111 5.99468 8.5068L2.96129 10.7107C2.82068 10.8128 2.63149 10.6754 2.6852 10.5101L3.84385 6.94413C3.86787 6.87021 3.84156 6.78923 3.77867 6.74354L0.745289 4.53966C0.604678 4.4375 0.676943 4.21509 0.850747 4.21509H4.60022C4.67794 4.21509 4.74683 4.16504 4.77085 4.09112L5.9295 0.525159Z" fill="#FFDA58"/>
</svg>
