<svg width="99" height="100" viewBox="0 0 99 100" fill="none" xmlns="http://www.w3.org/2000/svg">
<g filter="url(#filter0_d_1469_17335)">
<path fill-rule="evenodd" clip-rule="evenodd" d="M52.1391 3.30238C50.6313 1.98384 48.3806 1.98384 46.8728 3.30238L19.3867 27.3382C18.7289 27.9134 18.2776 28.6882 18.1017 29.5441L10.8129 65.0156C10.4046 67.0024 11.5481 68.9803 13.4736 69.618L48.2485 81.1334C49.065 81.4038 49.9469 81.4038 50.7634 81.1334L85.5383 69.618C87.4638 68.9803 88.6073 67.0024 88.199 65.0156L80.9102 29.5441C80.7343 28.6882 80.283 27.9134 79.6252 27.3382L52.1391 3.30238ZM79.1591 49.4922C79.2991 48.3165 79.3691 47.1062 79.3691 45.8959C79.2991 29.5743 65.8905 16.434 49.4011 16.4686C32.8767 16.5378 19.5731 29.7818 19.6432 46.1726C19.6432 47.3829 19.7482 48.5932 19.8882 49.8034C20.0983 51.4633 20.4484 53.0885 20.9385 54.6446C21.9538 57.9643 23.5642 61.0764 25.6648 63.8082C26.7851 65.2606 28.0454 66.6092 29.4108 67.854C34.7322 72.6606 41.8391 75.5653 49.6112 75.5307C57.3832 75.4962 64.4551 72.5569 69.7415 67.7157C71.1419 66.4363 72.4023 65.0531 73.5225 63.5662C74.8529 61.8026 75.9732 59.9007 76.8835 57.8605C77.3036 56.9269 77.6537 55.9586 77.9688 54.9904C78.1438 54.4371 78.2838 53.9184 78.4239 53.3652C78.7389 52.1203 79.019 50.8063 79.1591 49.4922Z" fill="url(#paint0_linear_1469_17335)"/>
<g filter="url(#filter1_d_1469_17335)">
<path fill-rule="evenodd" clip-rule="evenodd" d="M85.0558 46C85.0558 65.4163 69.1389 81.1562 49.5045 81.1562C29.87 81.1562 13.9531 65.4163 13.9531 46C13.9531 26.5837 29.87 10.8438 49.5045 10.8438C69.1389 10.8438 85.0558 26.5837 85.0558 46ZM79.1575 49.4924C79.2975 48.3167 79.3676 47.1064 79.3676 45.8961C79.2975 29.5745 65.889 16.4342 49.3995 16.4688C32.8751 16.538 19.5716 29.782 19.6416 46.1728C19.6416 47.3831 19.7466 48.5934 19.8867 49.8036C20.0967 51.4635 20.4468 53.0887 20.9369 54.6448C21.9522 57.9645 23.5626 61.0766 25.6632 63.8084C26.7835 65.2608 28.0438 66.6094 29.4092 67.8543C34.7306 72.6608 41.8375 75.5655 49.6096 75.5309C57.3817 75.4964 64.4536 72.5571 69.74 67.7159C71.1404 66.4365 72.4007 65.0533 73.521 63.5664C74.8513 61.8028 75.9716 59.9009 76.8819 57.8607C77.302 56.9271 77.6521 55.9588 77.9672 54.9906C78.1422 54.4373 78.2823 53.9186 78.4223 53.3654C78.7374 52.1205 79.0175 50.8065 79.1575 49.4924Z" fill="url(#paint1_linear_1469_17335)"/>
<path fill-rule="evenodd" clip-rule="evenodd" d="M80.7891 46C80.7891 63.0863 66.7822 76.9375 49.5039 76.9375C32.2256 76.9375 18.2188 63.0863 18.2188 46C18.2188 28.9137 32.2256 15.0625 49.5039 15.0625C66.7822 15.0625 80.7891 28.9137 80.7891 46ZM79.157 49.4924C79.297 48.3167 79.367 47.1064 79.367 45.8961C79.297 29.5745 65.8884 16.4342 49.399 16.4688C32.8746 16.538 19.5711 29.782 19.6411 46.1728C19.6411 47.3831 19.7461 48.5934 19.8861 49.8036C20.0962 51.4635 20.4463 53.0887 20.9364 54.6448C21.9517 57.9645 23.5621 61.0766 25.6627 63.8084C26.783 65.2608 28.0433 66.6094 29.4087 67.8543C34.7301 72.6608 41.837 75.5655 49.6091 75.5309C57.3812 75.4964 64.453 72.5571 69.7395 67.7159C71.1398 66.4365 72.4002 65.0533 73.5205 63.5664C74.8508 61.8028 75.9711 59.9009 76.8814 57.8607C77.3015 56.9271 77.6516 55.9588 77.9667 54.9906C78.1417 54.4373 78.2817 53.9186 78.4218 53.3654C78.7369 52.1205 79.0169 50.8065 79.157 49.4924Z" fill="url(#paint2_radial_1469_17335)" fill-opacity="0.1"/>
</g>
</g>
<defs>
<filter id="filter0_d_1469_17335" x="-6" y="-1" width="111.012" height="110" filterUnits="userSpaceOnUse" color-interpolation-filters="sRGB">
<feFlood flood-opacity="0" result="BackgroundImageFix"/>
<feColorMatrix in="SourceAlpha" type="matrix" values="0 0 0 0 0 0 0 0 0 0 0 0 0 0 0 0 0 0 127 0" result="hardAlpha"/>
<feOffset dy="8"/>
<feGaussianBlur stdDeviation="5"/>
<feColorMatrix type="matrix" values="0 0 0 0 0.00392157 0 0 0 0 0.0196078 0 0 0 0 0.2 0 0 0 0.08 0"/>
<feBlend mode="normal" in2="BackgroundImageFix" result="effect1_dropShadow_1469_17335"/>
<feBlend mode="normal" in="SourceGraphic" in2="effect1_dropShadow_1469_17335" result="shape"/>
</filter>
<filter id="filter1_d_1469_17335" x="7.95312" y="7.84375" width="83.1016" height="82.3125" filterUnits="userSpaceOnUse" color-interpolation-filters="sRGB">
<feFlood flood-opacity="0" result="BackgroundImageFix"/>
<feColorMatrix in="SourceAlpha" type="matrix" values="0 0 0 0 0 0 0 0 0 0 0 0 0 0 0 0 0 0 127 0" result="hardAlpha"/>
<feOffset dy="3"/>
<feGaussianBlur stdDeviation="3"/>
<feColorMatrix type="matrix" values="0 0 0 0 0.00392157 0 0 0 0 0.0196078 0 0 0 0 0.2 0 0 0 0.08 0"/>
<feBlend mode="normal" in2="BackgroundImageFix" result="effect1_dropShadow_1469_17335"/>
<feBlend mode="normal" in="SourceGraphic" in2="effect1_dropShadow_1469_17335" result="shape"/>
</filter>
<linearGradient id="paint0_linear_1469_17335" x1="10.6884" y1="41.8119" x2="88.2981" y2="41.8119" gradientUnits="userSpaceOnUse">
<stop stop-color="#C2E8FD"/>
<stop offset="0.3123" stop-color="#67E0AC"/>
<stop offset="0.7592" stop-color="#138B57"/>
<stop offset="1" stop-color="#C2E8FD"/>
</linearGradient>
<linearGradient id="paint1_linear_1469_17335" x1="13.9146" y1="45.9884" x2="85.0711" y2="45.9884" gradientUnits="userSpaceOnUse">
<stop stop-color="#C2E8FD"/>
<stop offset="0.3123" stop-color="#67E0AC"/>
<stop offset="0.7592" stop-color="#138B57"/>
<stop offset="1" stop-color="#C2E8FD"/>
</linearGradient>
<radialGradient id="paint2_radial_1469_17335" cx="0" cy="0" r="1" gradientUnits="userSpaceOnUse" gradientTransform="translate(49.4882 45.9845) scale(31.2699 30.9224)">
<stop stop-color="white" stop-opacity="0"/>
<stop offset="1" stop-color="#571600"/>
</radialGradient>
</defs>
</svg>
