<svg width="43" height="41" viewBox="0 0 43 41" fill="none" xmlns="http://www.w3.org/2000/svg">
<g clip-path="url(#clip0_1533_19318)">
<path d="M25.4099 1.97683L21.4769 0.922974L18.1625 13.2925L15.1702 2.12521L11.2371 3.17907L14.4701 15.2445L6.41746 7.19195L3.53827 10.0711L12.371 18.9039L1.37124 15.9565L0.317383 19.8895L12.336 23.1099C12.1984 22.5164 12.1256 21.898 12.1256 21.2626C12.1256 16.765 15.7716 13.119 20.2692 13.119C24.7668 13.119 28.4128 16.765 28.4128 21.2626C28.4128 21.8939 28.3409 22.5085 28.205 23.0985L39.1277 26.0252L40.1815 22.0922L28.1151 18.859L39.1156 15.9114L38.0617 11.9784L25.9958 15.2114L34.0484 7.15889L31.1692 4.2797L22.459 12.9899L25.4099 1.97683Z" fill="#F97316"/>
<path d="M28.1939 23.1444C27.8567 24.57 27.1448 25.8507 26.168 26.8768L34.081 34.7899L36.9602 31.9107L28.1939 23.1444Z" fill="#F97316"/>
<path d="M26.0881 26.9596C25.0995 27.9693 23.8502 28.7228 22.4492 29.1111L25.3286 39.8571L29.2616 38.8032L26.0881 26.9596Z" fill="#F97316"/>
<path d="M22.3023 29.1504C21.6523 29.3175 20.971 29.4063 20.2689 29.4063C19.5167 29.4063 18.7883 29.3043 18.0968 29.1134L15.2148 39.8692L19.1478 40.923L22.3023 29.1504Z" fill="#F97316"/>
<path d="M17.9578 29.0737C16.5782 28.6661 15.3511 27.903 14.3827 26.8904L6.4502 34.8229L9.32939 37.7021L17.9578 29.0737Z" fill="#F97316"/>
<path d="M14.3172 26.8204C13.3654 25.8014 12.6721 24.5378 12.3421 23.1342L1.38379 26.0705L2.43764 30.0035L14.3172 26.8204Z" fill="#F97316"/>
</g>
<defs>
<clipPath id="clip0_1533_19318">
<rect width="168" height="41" fill="white"/>
</clipPath>
</defs>
</svg>
