<svg width="49" height="51" viewBox="0 0 49 51" fill="none" xmlns="http://www.w3.org/2000/svg">
<path d="M17.8657 13.888C10.7929 21.222 11.1738 29.6333 17.7896 36.4232C17.4196 36.4667 17.1367 36.5211 16.8647 36.5211C12.4686 36.5211 8.07257 36.5102 3.66563 36.5429C2.91482 36.5429 2.55575 36.3144 2.26195 35.6289C-0.752171 28.6757 -0.763048 21.7443 2.28372 14.8129C2.44694 14.4321 2.9366 13.9315 3.2848 13.9206C8.07258 13.8662 12.8604 13.8771 17.8766 13.8771L17.8657 13.888Z" fill="white"/>
<path d="M14.3292 47.8049C22.8601 46.4665 28.9972 42.1031 32.6642 34.3665C32.8274 34.0292 33.3171 33.6484 33.6653 33.6484C38.6163 33.6048 43.5781 33.6266 48.5291 33.6375C48.6053 33.6375 48.6706 33.6919 48.7468 33.7245C44.5466 47.3697 27.55 54.5622 14.3401 47.8158L14.3292 47.8049Z" fill="white"/>
<path d="M48.9747 16.8046C48.2892 16.8046 47.8213 16.8046 47.3534 16.8046C42.9139 16.8046 38.4634 16.8264 34.0238 16.772C33.5777 16.772 32.8922 16.4891 32.729 16.1518C29.0511 8.36075 22.914 3.95381 14.1328 2.58277C20.7813 -0.474879 27.3101 -0.833963 33.8932 1.59257C41.162 4.28025 46.1021 9.39447 48.9747 16.8046Z" fill="white"/>
</svg>
