<svg width="17" height="17" viewBox="0 0 17 17" fill="none" xmlns="http://www.w3.org/2000/svg">
<g id="Icons/Phosphor/Education/BookBookmark">
<path id="Vector (Stroke)" fill-rule="evenodd" clip-rule="evenodd" d="M7.37847 1.58108C7.66954 1.58108 7.90549 1.81704 7.90549 2.10811V7.37838L9.17036 6.42973C9.35775 6.28919 9.6154 6.28919 9.80279 6.42973L11.0677 7.37838V2.10811C11.0677 1.81704 11.3036 1.58108 11.5947 1.58108C11.8858 1.58108 12.1217 1.81704 12.1217 2.10811V8.43243C12.1217 8.63206 12.0089 8.81455 11.8304 8.90382C11.6518 8.99309 11.4382 8.97383 11.2785 8.85405L9.48658 7.51014L7.69468 8.85405C7.53499 8.97383 7.32132 8.99309 7.14277 8.90382C6.96423 8.81455 6.85144 8.63206 6.85144 8.43243V2.10811C6.85144 1.81704 7.0874 1.58108 7.37847 1.58108Z" fill="white"/>
<path id="Vector (Stroke)_2" fill-rule="evenodd" clip-rule="evenodd" d="M4.74428 1.58108H13.7027C13.9938 1.58108 14.2297 1.81704 14.2297 2.10811V12.6486C14.2297 12.9397 13.9938 13.1757 13.7027 13.1757H4.74325L4.74104 13.1757C4.60275 13.1751 4.46571 13.2019 4.33783 13.2546C4.20996 13.3072 4.09377 13.3847 3.99598 13.4825C3.89819 13.5802 3.82074 13.6964 3.76808 13.8243C3.71667 13.9492 3.68989 14.0828 3.6892 14.2178V14.2297C3.6892 14.5204 3.45391 14.7561 3.16328 14.7568C2.87264 14.7574 2.63637 14.5226 2.63515 14.2319C2.63513 14.2265 2.63513 14.221 2.63515 14.2155V3.69022M3.6892 12.4013C3.76872 12.3555 3.85132 12.315 3.93651 12.2799C4.19267 12.1744 4.46715 12.1206 4.74417 12.1216C4.7446 12.1216 4.74503 12.1216 4.74546 12.1216L4.74325 12.6486V12.1216H4.74417H13.1757V12.6486H13.7027V12.1216H13.1757V2.63514H13.7027V2.10811H13.1757V2.63514H4.74104C4.60275 2.63456 4.46571 2.66136 4.33783 2.71402C4.20996 2.76667 4.09377 2.84413 3.99598 2.94192C3.89819 3.03971 3.82074 3.15589 3.76808 3.28377C3.71543 3.41165 3.68862 3.54869 3.6892 3.68698L3.6892 3.68919L3.6892 12.4013Z" fill="white"/>
<path id="Vector (Stroke)_3" fill-rule="evenodd" clip-rule="evenodd" d="M3.16216 13.7027C3.45323 13.7027 3.68919 13.9387 3.68919 14.2297H12.6486C12.9397 14.2297 13.1757 14.4657 13.1757 14.7568C13.1757 15.0478 12.9397 15.2838 12.6486 15.2838H3.16216C2.87109 15.2838 2.63513 15.0478 2.63513 14.7568V14.2297C2.63513 13.9387 2.87109 13.7027 3.16216 13.7027Z" fill="white"/>
</g>
</svg>
