<svg width="98" height="108" viewBox="0 0 98 108" fill="none" xmlns="http://www.w3.org/2000/svg">
<g filter="url(#filter0_d_1081_15610)">
<path fill-rule="evenodd" clip-rule="evenodd" d="M51.6239 2.997C50.1633 1.82912 48.0885 1.82912 46.6279 2.997L31.8259 14.8326C31.5111 15.0843 31.1599 15.2871 30.7845 15.4339L13.1336 22.335C11.3919 23.0159 10.3545 24.8128 10.6356 26.6616L13.4845 45.3983C13.5451 45.7969 13.5451 46.2023 13.4845 46.6009L10.6356 65.3376C10.3545 67.1864 11.3919 68.9833 13.1336 69.6642L30.7845 76.5653C31.1599 76.7121 31.5111 76.9149 31.8259 77.1666L46.6279 89.0022C48.0885 90.1701 50.1633 90.1701 51.6239 89.0022L66.4259 77.1666C66.7408 76.9149 67.0919 76.7121 67.4674 76.5653L85.1183 69.6642C86.86 68.9833 87.8974 67.1864 87.6163 65.3376L84.7673 46.6009C84.7067 46.2023 84.7067 45.7969 84.7673 45.3983L87.6163 26.6616C87.8974 24.8128 86.86 23.0159 85.1183 22.335L67.4674 15.4339C67.0919 15.2871 66.7408 15.0843 66.4259 14.8326L51.6239 2.997ZM78.4496 49.492C78.588 48.3163 78.6573 47.106 78.6573 45.8958C78.588 29.5741 65.3284 16.4338 49.0222 16.4684C32.6814 16.5376 19.5257 29.7816 19.5949 46.1724C19.5949 47.3827 19.6988 48.593 19.8373 49.8033C20.045 51.4631 20.3912 53.0883 20.8759 54.6444C21.8799 57.9641 23.4724 61.0762 25.5496 63.808C26.6575 65.2604 27.9038 66.609 29.254 67.8539C34.5163 72.6604 41.5442 75.5651 49.23 75.5305C56.9157 75.496 63.909 72.5567 69.1367 67.7155C70.5215 66.4361 71.7678 65.0529 72.8757 63.566C74.1912 61.8024 75.2991 59.9005 76.1992 57.8603C76.6147 56.9267 76.9609 55.9584 77.2725 54.9902C77.4456 54.4369 77.584 53.9182 77.7225 53.365C78.0341 52.1201 78.3111 50.8061 78.4496 49.492Z" fill="url(#paint0_linear_1081_15610)"/>
<g filter="url(#filter1_d_1081_15610)">
<path fill-rule="evenodd" clip-rule="evenodd" d="M84.1564 46C84.1564 65.4163 68.4164 81.1562 49.0001 81.1562C29.5838 81.1562 13.8438 65.4163 13.8438 46C13.8438 26.5837 29.5838 10.8438 49.0001 10.8438C68.4164 10.8438 84.1564 26.5837 84.1564 46ZM78.3236 49.4924C78.4621 48.3167 78.5314 47.1064 78.5314 45.8961C78.4621 29.5745 65.2025 16.4342 48.8963 16.4688C32.5555 16.538 19.3998 29.782 19.469 46.1728C19.469 47.3831 19.5729 48.5934 19.7114 49.8036C19.9191 51.4635 20.2653 53.0887 20.75 54.6448C21.754 57.9645 23.3465 61.0766 25.4237 63.8084C26.5316 65.2608 27.7779 66.6094 29.1281 67.8543C34.3904 72.6608 41.4183 75.5655 49.104 75.5309C56.7898 75.4964 63.7831 72.5571 69.0108 67.7159C70.3956 66.4365 71.6419 65.0533 72.7498 63.5664C74.0653 61.8028 75.1732 59.9009 76.0733 57.8607C76.4888 56.9271 76.835 55.9588 77.1465 54.9906C77.3196 54.4373 77.4581 53.9186 77.5966 53.3654C77.9082 52.1205 78.1852 50.8065 78.3236 49.4924Z" fill="url(#paint1_linear_1081_15610)"/>
<path fill-rule="evenodd" clip-rule="evenodd" d="M79.9376 46C79.9376 63.0863 66.0864 76.9375 49.0001 76.9375C31.9137 76.9375 18.0625 63.0863 18.0625 46C18.0625 28.9137 31.9137 15.0625 49.0001 15.0625C66.0864 15.0625 79.9376 28.9137 79.9376 46ZM78.3236 49.4924C78.4621 48.3167 78.5314 47.1064 78.5314 45.8961C78.4621 29.5745 65.2025 16.4342 48.8963 16.4688C32.5555 16.538 19.3998 29.782 19.469 46.1728C19.469 47.3831 19.5729 48.5934 19.7114 49.8036C19.9191 51.4635 20.2653 53.0887 20.75 54.6448C21.754 57.9645 23.3465 61.0766 25.4237 63.8084C26.5316 65.2608 27.7779 66.6094 29.1281 67.8543C34.3904 72.6608 41.4183 75.5655 49.104 75.5309C56.7898 75.4964 63.7831 72.5571 69.0108 67.7159C70.3956 66.4365 71.6419 65.0533 72.7498 63.5664C74.0653 61.8028 75.1732 59.9009 76.0733 57.8607C76.4888 56.9271 76.835 55.9588 77.1465 54.9906C77.3196 54.4373 77.4581 53.9186 77.5966 53.3654C77.9082 52.1205 78.1852 50.8065 78.3236 49.4924Z" fill="url(#paint2_radial_1081_15610)" fill-opacity="0.1"/>
</g>
</g>
<defs>
<filter id="filter0_d_1081_15610" x="-6" y="-1" width="110" height="110" filterUnits="userSpaceOnUse" color-interpolation-filters="sRGB">
<feFlood flood-opacity="0" result="BackgroundImageFix"/>
<feColorMatrix in="SourceAlpha" type="matrix" values="0 0 0 0 0 0 0 0 0 0 0 0 0 0 0 0 0 0 127 0" result="hardAlpha"/>
<feOffset dy="8"/>
<feGaussianBlur stdDeviation="5"/>
<feColorMatrix type="matrix" values="0 0 0 0 0.00392157 0 0 0 0 0.0196078 0 0 0 0 0.2 0 0 0 0.08 0"/>
<feBlend mode="normal" in2="BackgroundImageFix" result="effect1_dropShadow_1081_15610"/>
<feBlend mode="normal" in="SourceGraphic" in2="effect1_dropShadow_1081_15610" result="shape"/>
</filter>
<filter id="filter1_d_1081_15610" x="7.84375" y="7.84375" width="82.3125" height="82.3125" filterUnits="userSpaceOnUse" color-interpolation-filters="sRGB">
<feFlood flood-opacity="0" result="BackgroundImageFix"/>
<feColorMatrix in="SourceAlpha" type="matrix" values="0 0 0 0 0 0 0 0 0 0 0 0 0 0 0 0 0 0 127 0" result="hardAlpha"/>
<feOffset dy="3"/>
<feGaussianBlur stdDeviation="3"/>
<feColorMatrix type="matrix" values="0 0 0 0 0.00392157 0 0 0 0 0.0196078 0 0 0 0 0.2 0 0 0 0.08 0"/>
<feBlend mode="normal" in2="BackgroundImageFix" result="effect1_dropShadow_1081_15610"/>
<feBlend mode="normal" in="SourceGraphic" in2="effect1_dropShadow_1081_15610" result="shape"/>
</filter>
<linearGradient id="paint0_linear_1081_15610" x1="10.548" y1="45.9852" x2="87.6786" y2="45.9852" gradientUnits="userSpaceOnUse">
<stop stop-color="#41B8FD"/>
<stop offset="0.3123" stop-color="#0013BD"/>
<stop offset="0.7592" stop-color="#5866E0"/>
<stop offset="1" stop-color="#6CC7FD"/>
</linearGradient>
<linearGradient id="paint1_linear_1081_15610" x1="13.8056" y1="45.9884" x2="84.1715" y2="45.9884" gradientUnits="userSpaceOnUse">
<stop stop-color="#41B8FD"/>
<stop offset="0.3123" stop-color="#0013BD"/>
<stop offset="0.7592" stop-color="#5866E0"/>
<stop offset="1" stop-color="#6CC7FD"/>
</linearGradient>
<radialGradient id="paint2_radial_1081_15610" cx="0" cy="0" r="1" gradientUnits="userSpaceOnUse" gradientTransform="translate(48.9846 45.9845) scale(30.9225 30.9224)">
<stop stop-color="white" stop-opacity="0"/>
<stop offset="1" stop-color="#571600"/>
</radialGradient>
</defs>
</svg>
