<svg width="109" height="109" viewBox="0 0 109 109" fill="none" xmlns="http://www.w3.org/2000/svg">
<g filter="url(#filter0_d_1081_15614)">
<path fill-rule="evenodd" clip-rule="evenodd" d="M55.8324 2.54319C55.1168 1.99862 54.1257 1.99862 53.4101 2.54319L47.1393 7.31514C46.6635 7.67715 46.0508 7.80738 45.469 7.67017L37.7994 5.86134C36.9242 5.65492 36.0188 6.05803 35.5865 6.84658L31.7988 13.7566C31.5114 14.2808 31.0047 14.6489 30.4173 14.7602L22.6751 16.2273C21.7915 16.3947 21.1284 17.1312 21.0542 18.0274L20.4045 25.8806C20.3552 26.4764 20.042 27.0188 19.5507 27.3594L13.0745 31.8487C12.3355 32.361 12.0292 33.3036 12.326 34.1525L14.9266 41.591C15.1239 42.1553 15.0584 42.7782 14.7481 43.2892L10.6578 50.0245C10.191 50.7931 10.2946 51.7787 10.911 52.4335L16.3123 58.1712C16.722 58.6064 16.9156 59.2022 16.8399 59.7951L15.8427 67.6118C15.7289 68.5038 16.2244 69.3621 17.0539 69.7096L24.3219 72.7543C24.8733 72.9853 25.2924 73.4508 25.4645 74.0233L27.7328 81.5698C27.9917 82.431 28.7934 83.0135 29.6925 82.9936L37.5706 82.8189C38.1682 82.8056 38.7404 83.0604 39.1305 83.5134L44.2721 89.4848C44.8589 90.1663 45.8283 90.3724 46.6415 89.9885L53.7675 86.6246C54.308 86.3694 54.9344 86.3694 55.475 86.6246L62.601 89.9885C63.4142 90.3724 64.3836 90.1663 64.9703 89.4848L70.112 83.5134C70.502 83.0604 71.0743 82.8056 71.6719 82.8189L79.55 82.9936C80.449 83.0135 81.2508 82.431 81.5097 81.5698L83.778 74.0233C83.9501 73.4508 84.3692 72.9853 84.9206 72.7543L92.1886 69.7096C93.018 69.3621 93.5136 68.5038 93.3998 67.6118L92.4025 59.7951C92.3269 59.2022 92.5205 58.6064 92.9302 58.1712L98.3315 52.4335C98.9479 51.7787 99.0515 50.7931 98.5847 50.0245L94.4944 43.2892C94.1841 42.7782 94.1186 42.1553 94.3159 41.591L96.9165 34.1525C97.2133 33.3036 96.907 32.361 96.168 31.8487L89.6918 27.3594C89.2005 27.0188 88.8873 26.4764 88.838 25.8806L88.1882 18.0274C88.1141 17.1312 87.4509 16.3947 86.5674 16.2273L78.8252 14.7602C78.2378 14.6489 77.7311 14.2808 77.4437 13.7566L73.656 6.84658C73.2237 6.05803 72.3183 5.65492 71.4431 5.86134L63.7735 7.67017C63.1916 7.80739 62.5789 7.67715 62.1032 7.31514L55.8324 2.54319ZM83.9449 50.114C84.0834 48.9383 84.1526 47.728 84.1526 46.5177C84.0834 30.1961 70.8237 17.0558 54.5176 17.0904C38.1768 17.1595 25.021 30.4035 25.0903 46.7943C25.0903 48.0046 25.1941 49.2149 25.3326 50.4252C25.5403 52.085 25.8865 53.7103 26.3712 55.2663C27.3752 58.586 28.9677 61.6982 31.045 64.43C32.1528 65.8823 33.3991 67.2309 34.7493 68.4758C40.0116 73.2824 47.0396 76.1871 54.7253 76.1525C62.411 76.1179 69.4043 73.1786 74.632 68.3375C76.0168 67.058 77.2631 65.6748 78.371 64.1879C79.6866 62.4243 80.7944 60.5225 81.6945 58.4823C82.11 57.5486 82.4562 56.5804 82.7678 55.6121C82.9409 55.0589 83.0794 54.5402 83.2178 53.9869C83.5294 52.742 83.8064 51.428 83.9449 50.114Z" fill="url(#paint0_linear_1081_15614)"/>
<g filter="url(#filter1_d_1081_15614)">
<path fill-rule="evenodd" clip-rule="evenodd" d="M89.1564 46C89.1564 65.4163 73.4164 81.1562 54.0001 81.1562C34.5838 81.1562 18.8438 65.4163 18.8438 46C18.8438 26.5837 34.5838 10.8438 54.0001 10.8438C73.4164 10.8438 89.1564 26.5837 89.1564 46ZM83.3236 49.4924C83.4621 48.3167 83.5314 47.1064 83.5314 45.8961C83.4621 29.5745 70.2025 16.4342 53.8963 16.4688C37.5555 16.538 24.3998 29.782 24.469 46.1728C24.469 47.3831 24.5729 48.5934 24.7114 49.8036C24.9191 51.4635 25.2653 53.0887 25.75 54.6448C26.754 57.9645 28.3465 61.0766 30.4237 63.8084C31.5316 65.2608 32.7779 66.6094 34.1281 67.8543C39.3904 72.6608 46.4183 75.5655 54.104 75.5309C61.7898 75.4964 68.7831 72.5571 74.0108 67.7159C75.3956 66.4365 76.6419 65.0533 77.7498 63.5664C79.0653 61.8028 80.1732 59.9009 81.0733 57.8607C81.4888 56.9271 81.835 55.9588 82.1465 54.9906C82.3196 54.4373 82.4581 53.9186 82.5966 53.3654C82.9082 52.1205 83.1852 50.8065 83.3236 49.4924Z" fill="url(#paint1_linear_1081_15614)"/>
<path fill-rule="evenodd" clip-rule="evenodd" d="M84.9376 46C84.9376 63.0863 71.0864 76.9375 54.0001 76.9375C36.9137 76.9375 23.0625 63.0863 23.0625 46C23.0625 28.9137 36.9137 15.0625 54.0001 15.0625C71.0864 15.0625 84.9376 28.9137 84.9376 46ZM83.3236 49.4924C83.4621 48.3167 83.5314 47.1064 83.5314 45.8961C83.4621 29.5745 70.2025 16.4342 53.8963 16.4688C37.5555 16.538 24.3998 29.782 24.469 46.1728C24.469 47.3831 24.5729 48.5934 24.7114 49.8036C24.9191 51.4635 25.2653 53.0887 25.75 54.6448C26.754 57.9645 28.3465 61.0766 30.4237 63.8084C31.5316 65.2608 32.7779 66.6094 34.1281 67.8543C39.3904 72.6608 46.4183 75.5655 54.104 75.5309C61.7898 75.4964 68.7831 72.5571 74.0108 67.7159C75.3956 66.4365 76.6419 65.0533 77.7498 63.5664C79.0653 61.8028 80.1732 59.9009 81.0733 57.8607C81.4888 56.9271 81.835 55.9588 82.1465 54.9906C82.3196 54.4373 82.4581 53.9186 82.5966 53.3654C82.9082 52.1205 83.1852 50.8065 83.3236 49.4924Z" fill="url(#paint2_radial_1081_15614)" fill-opacity="0.1"/>
</g>
</g>
<defs>
<filter id="filter0_d_1081_15614" x="-1" y="-1" width="110" height="110" filterUnits="userSpaceOnUse" color-interpolation-filters="sRGB">
<feFlood flood-opacity="0" result="BackgroundImageFix"/>
<feColorMatrix in="SourceAlpha" type="matrix" values="0 0 0 0 0 0 0 0 0 0 0 0 0 0 0 0 0 0 127 0" result="hardAlpha"/>
<feOffset dy="8"/>
<feGaussianBlur stdDeviation="5"/>
<feColorMatrix type="matrix" values="0 0 0 0 0.00392157 0 0 0 0 0.0196078 0 0 0 0 0.2 0 0 0 0.08 0"/>
<feBlend mode="normal" in2="BackgroundImageFix" result="effect1_dropShadow_1081_15614"/>
<feBlend mode="normal" in="SourceGraphic" in2="effect1_dropShadow_1081_15614" result="shape"/>
</filter>
<filter id="filter1_d_1081_15614" x="12.8438" y="7.84375" width="82.3125" height="82.3125" filterUnits="userSpaceOnUse" color-interpolation-filters="sRGB">
<feFlood flood-opacity="0" result="BackgroundImageFix"/>
<feColorMatrix in="SourceAlpha" type="matrix" values="0 0 0 0 0 0 0 0 0 0 0 0 0 0 0 0 0 0 127 0" result="hardAlpha"/>
<feOffset dy="3"/>
<feGaussianBlur stdDeviation="3"/>
<feColorMatrix type="matrix" values="0 0 0 0 0.00392157 0 0 0 0 0.0196078 0 0 0 0 0.2 0 0 0 0.08 0"/>
<feBlend mode="normal" in2="BackgroundImageFix" result="effect1_dropShadow_1081_15614"/>
<feBlend mode="normal" in="SourceGraphic" in2="effect1_dropShadow_1081_15614" result="shape"/>
</filter>
<linearGradient id="paint0_linear_1081_15614" x1="10.3192" y1="46.1429" x2="98.8943" y2="46.1429" gradientUnits="userSpaceOnUse">
<stop stop-color="#FFFCA8"/>
<stop offset="0.3123" stop-color="#FDB836"/>
<stop offset="0.7592" stop-color="#FDC966"/>
<stop offset="1" stop-color="#F1DC83"/>
</linearGradient>
<linearGradient id="paint1_linear_1081_15614" x1="18.8056" y1="45.9884" x2="89.1715" y2="45.9884" gradientUnits="userSpaceOnUse">
<stop stop-color="#FFFCA8"/>
<stop offset="0.3123" stop-color="#FDB836"/>
<stop offset="0.7592" stop-color="#FDC966"/>
<stop offset="1" stop-color="#F1DC83"/>
</linearGradient>
<radialGradient id="paint2_radial_1081_15614" cx="0" cy="0" r="1" gradientUnits="userSpaceOnUse" gradientTransform="translate(53.9846 45.9845) scale(30.9225 30.9224)">
<stop stop-color="white" stop-opacity="0"/>
<stop offset="1" stop-color="#571600"/>
</radialGradient>
</defs>
</svg>
