<svg width="108" height="108" viewBox="0 0 108 108" fill="none" xmlns="http://www.w3.org/2000/svg">
<g opacity="0.9" filter="url(#filter0_d_1081_15612)">
<path fill-rule="evenodd" clip-rule="evenodd" d="M56.6643 3.38152C55.1463 2.02517 52.8518 2.02517 51.3339 3.38152L41.4382 12.2237C40.7626 12.8274 39.9021 13.1838 38.9975 13.2347L25.7478 13.9796C23.7154 14.0939 22.0929 15.7163 21.9786 17.7488L21.2337 30.9985C21.1829 31.9031 20.8264 32.7636 20.2228 33.4392L11.3805 43.3349C10.0242 44.8528 10.0242 47.1473 11.3805 48.6653L20.2228 58.561C20.8264 59.2365 21.1829 60.0971 21.2337 61.0016L21.9786 74.2513C22.0929 76.2838 23.7154 77.9062 25.7478 78.0205L38.9975 78.7654C39.9021 78.8163 40.7626 79.1727 41.4382 79.7764L51.3339 88.6186C52.8518 89.9749 55.1463 89.9749 56.6643 88.6186L66.56 79.7764C67.2356 79.1727 68.0961 78.8163 69.0006 78.7654L82.2504 78.0205C84.2828 77.9062 85.9053 76.2838 86.0195 74.2513L86.7645 61.0016C86.8153 60.0971 87.1717 59.2365 87.7754 58.561L96.6176 48.6653C97.974 47.1473 97.974 44.8528 96.6176 43.3349L87.7754 33.4392C87.1717 32.7636 86.8153 31.9031 86.7645 30.9985L86.0195 17.7488C85.9053 15.7163 84.2828 14.0939 82.2504 13.9796L69.0006 13.2347C68.0961 13.1838 67.2356 12.8274 66.56 12.2237L56.6643 3.38152ZM83.3227 49.4925C83.4612 48.3168 83.5304 47.1065 83.5304 45.8962C83.4612 29.5746 70.2016 16.4343 53.8954 16.4689C37.5546 16.538 24.3989 29.7821 24.4681 46.1728C24.4681 47.3831 24.572 48.5934 24.7104 49.8037C24.9182 51.4635 25.2644 53.0888 25.7491 54.6449C26.753 57.9645 28.3456 61.0767 30.4228 63.8085C31.5307 65.2608 32.777 66.6094 34.1272 67.8543C39.3895 72.6609 46.4174 75.5656 54.1031 75.531C61.7888 75.4964 68.7822 72.5572 74.0098 67.716C75.3947 66.4365 76.641 65.0534 77.7488 63.5664C79.0644 61.8029 80.1723 59.901 81.0724 57.8608C81.4878 56.9271 81.834 55.9589 82.1456 54.9907C82.3187 54.4374 82.4572 53.9187 82.5957 53.3654C82.9073 52.1205 83.1842 50.8065 83.3227 49.4925Z" fill="url(#paint0_linear_1081_15612)"/>
<g filter="url(#filter1_d_1081_15612)">
<path fill-rule="evenodd" clip-rule="evenodd" d="M89.1564 46C89.1564 65.4163 73.4164 81.1562 54.0001 81.1562C34.5838 81.1562 18.8438 65.4163 18.8438 46C18.8438 26.5837 34.5838 10.8438 54.0001 10.8438C73.4164 10.8438 89.1564 26.5837 89.1564 46ZM83.3236 49.4924C83.4621 48.3167 83.5314 47.1064 83.5314 45.8961C83.4621 29.5745 70.2025 16.4342 53.8963 16.4688C37.5555 16.538 24.3998 29.782 24.469 46.1728C24.469 47.3831 24.5729 48.5934 24.7114 49.8036C24.9191 51.4635 25.2653 53.0887 25.75 54.6448C26.754 57.9645 28.3465 61.0766 30.4237 63.8084C31.5316 65.2608 32.7779 66.6094 34.1281 67.8543C39.3904 72.6608 46.4183 75.5655 54.104 75.5309C61.7898 75.4964 68.7831 72.5571 74.0108 67.7159C75.3956 66.4365 76.6419 65.0533 77.7498 63.5664C79.0653 61.8028 80.1732 59.9009 81.0733 57.8607C81.4888 56.9271 81.835 55.9588 82.1465 54.9906C82.3196 54.4373 82.4581 53.9186 82.5966 53.3654C82.9082 52.1205 83.1852 50.8065 83.3236 49.4924Z" fill="url(#paint1_linear_1081_15612)"/>
<path fill-rule="evenodd" clip-rule="evenodd" d="M84.9376 46C84.9376 63.0863 71.0864 76.9375 54.0001 76.9375C36.9137 76.9375 23.0625 63.0863 23.0625 46C23.0625 28.9137 36.9137 15.0625 54.0001 15.0625C71.0864 15.0625 84.9376 28.9137 84.9376 46ZM83.3236 49.4924C83.4621 48.3167 83.5314 47.1064 83.5314 45.8961C83.4621 29.5745 70.2025 16.4342 53.8963 16.4688C37.5555 16.538 24.3998 29.782 24.469 46.1728C24.469 47.3831 24.5729 48.5934 24.7114 49.8036C24.9191 51.4635 25.2653 53.0887 25.75 54.6448C26.754 57.9645 28.3465 61.0766 30.4237 63.8084C31.5316 65.2608 32.7779 66.6094 34.1281 67.8543C39.3904 72.6608 46.4183 75.5655 54.104 75.5309C61.7898 75.4964 68.7831 72.5571 74.0108 67.7159C75.3956 66.4365 76.6419 65.0533 77.7498 63.5664C79.0653 61.8028 80.1732 59.9009 81.0733 57.8607C81.4888 56.9271 81.835 55.9588 82.1465 54.9906C82.3196 54.4373 82.4581 53.9186 82.5966 53.3654C82.9082 52.1205 83.1852 50.8065 83.3236 49.4924Z" fill="url(#paint2_radial_1081_15612)" fill-opacity="0.1"/>
</g>
</g>
<defs>
<filter id="filter0_d_1081_15612" x="-1" y="-1" width="110" height="110" filterUnits="userSpaceOnUse" color-interpolation-filters="sRGB">
<feFlood flood-opacity="0" result="BackgroundImageFix"/>
<feColorMatrix in="SourceAlpha" type="matrix" values="0 0 0 0 0 0 0 0 0 0 0 0 0 0 0 0 0 0 127 0" result="hardAlpha"/>
<feOffset dy="8"/>
<feGaussianBlur stdDeviation="5"/>
<feColorMatrix type="matrix" values="0 0 0 0 0.00392157 0 0 0 0 0.0196078 0 0 0 0 0.2 0 0 0 0.08 0"/>
<feBlend mode="normal" in2="BackgroundImageFix" result="effect1_dropShadow_1081_15612"/>
<feBlend mode="normal" in="SourceGraphic" in2="effect1_dropShadow_1081_15612" result="shape"/>
</filter>
<filter id="filter1_d_1081_15612" x="12.8438" y="7.84375" width="82.3125" height="82.3125" filterUnits="userSpaceOnUse" color-interpolation-filters="sRGB">
<feFlood flood-opacity="0" result="BackgroundImageFix"/>
<feColorMatrix in="SourceAlpha" type="matrix" values="0 0 0 0 0 0 0 0 0 0 0 0 0 0 0 0 0 0 127 0" result="hardAlpha"/>
<feOffset dy="3"/>
<feGaussianBlur stdDeviation="3"/>
<feColorMatrix type="matrix" values="0 0 0 0 0.00392157 0 0 0 0 0.0196078 0 0 0 0 0.2 0 0 0 0.08 0"/>
<feBlend mode="normal" in2="BackgroundImageFix" result="effect1_dropShadow_1081_15612"/>
<feBlend mode="normal" in="SourceGraphic" in2="effect1_dropShadow_1081_15612" result="shape"/>
</filter>
<linearGradient id="paint0_linear_1081_15612" x1="10.316" y1="45.9857" x2="97.6537" y2="45.9857" gradientUnits="userSpaceOnUse">
<stop stop-color="#FFF8C1"/>
<stop offset="0.0001" stop-color="#C2E8FD"/>
<stop offset="0.3123" stop-color="#919191"/>
<stop offset="0.7592" stop-color="#DDDDDD"/>
<stop offset="1" stop-color="#E3E3E3"/>
</linearGradient>
<linearGradient id="paint1_linear_1081_15612" x1="18.8056" y1="45.9884" x2="89.1715" y2="45.9884" gradientUnits="userSpaceOnUse">
<stop stop-color="#FFF8C1"/>
<stop offset="0.0001" stop-color="#C2E8FD"/>
<stop offset="0.3123" stop-color="#919191"/>
<stop offset="0.7592" stop-color="#DDDDDD"/>
<stop offset="1" stop-color="white"/>
</linearGradient>
<radialGradient id="paint2_radial_1081_15612" cx="0" cy="0" r="1" gradientUnits="userSpaceOnUse" gradientTransform="translate(53.9846 45.9845) scale(30.9225 30.9224)">
<stop stop-color="white" stop-opacity="0"/>
<stop offset="1" stop-color="#571600"/>
</radialGradient>
</defs>
</svg>
