<svg width="11" height="12" viewBox="0 0 11 12" fill="none" xmlns="http://www.w3.org/2000/svg">
<g clip-path="url(#clip0_480_16518)">
<path fill-rule="evenodd" clip-rule="evenodd" d="M5.66051 2.1148C3.55251 2.1148 1.84363 3.82367 1.84363 5.93168C1.84363 8.03968 3.55251 9.74856 5.66051 9.74856C7.76852 9.74856 9.47739 8.03968 9.47739 5.93168C9.47739 3.82367 7.76852 2.1148 5.66051 2.1148ZM0.995438 5.93168C0.995438 3.35523 3.08406 1.2666 5.66051 1.2666C8.23696 1.2666 10.3256 3.35523 10.3256 5.93168C10.3256 8.50813 8.23696 10.5968 5.66051 10.5968C3.08406 10.5968 0.995438 8.50813 0.995438 5.93168Z" fill="#524E4E"/>
<path fill-rule="evenodd" clip-rule="evenodd" d="M4.6122 3.86134C4.7501 3.78754 4.91742 3.79563 5.04756 3.88238L7.59215 5.57878C7.71013 5.65743 7.781 5.78985 7.781 5.93165C7.781 6.07345 7.71013 6.20586 7.59215 6.28452L5.04756 7.98091C4.91742 8.06767 4.7501 8.07576 4.6122 8.00195C4.4743 7.92815 4.38821 7.78444 4.38821 7.62804V4.23526C4.38821 4.07885 4.4743 3.93514 4.6122 3.86134ZM5.23641 5.02769V6.8356L6.59235 5.93165L5.23641 5.02769Z" fill="black"/>
</g>
<defs>
<clipPath id="clip0_480_16518">
<rect width="10.1783" height="10.1783" fill="white" transform="translate(0.571335 0.842529)"/>
</clipPath>
</defs>
</svg>
