<svg width="61" height="56" viewBox="0 0 61 56" fill="none" xmlns="http://www.w3.org/2000/svg">
<path fill-rule="evenodd" clip-rule="evenodd" d="M57.7132 3.01691C58.7058 3.92814 58.7058 5.40552 57.7132 6.31675L29.7549 31.9834C28.7623 32.8946 27.153 32.8946 26.1605 31.9834C25.1679 31.0722 25.1679 29.5948 26.1605 28.6836L54.1188 3.01691C55.1114 2.10569 56.7207 2.10569 57.7132 3.01691Z" fill="white"/>
<path fill-rule="evenodd" clip-rule="evenodd" d="M57.7133 3.01698C58.4037 3.6508 58.6376 4.59168 58.315 5.43771L40.5233 52.1044C40.1791 53.0074 39.2692 53.626 38.228 53.665C37.1867 53.704 36.225 53.1555 35.8018 52.2812L26.0321 32.1013L4.05043 23.1325C3.09811 22.7439 2.50066 21.861 2.54314 20.9051C2.58562 19.9492 3.25943 19.1139 4.24305 18.7979L55.0764 2.46456C55.998 2.16845 57.0228 2.38316 57.7133 3.01698ZM11.9733 21.2583L28.99 28.2013C29.565 28.4359 30.0247 28.858 30.2803 29.3859L37.8432 45.0077L51.7732 8.47016L11.9733 21.2583Z" fill="white"/>
</svg>
