<svg width="17" height="17" viewBox="0 0 17 17" fill="none" xmlns="http://www.w3.org/2000/svg">
<g id="Icons/Feather/award" clip-path="url(#clip0_480_16385)">
<path id="Vector (Stroke)" fill-rule="evenodd" clip-rule="evenodd" d="M8.43241 1.40541C6.10386 1.40541 4.2162 3.29307 4.2162 5.62162C4.2162 7.95017 6.10386 9.83784 8.43241 9.83784C10.761 9.83784 12.6486 7.95017 12.6486 5.62162C12.6486 3.29307 10.761 1.40541 8.43241 1.40541ZM2.81079 5.62162C2.81079 2.51689 5.32768 0 8.43241 0C11.5371 0 14.054 2.51689 14.054 5.62162C14.054 8.72636 11.5371 11.2432 8.43241 11.2432C5.32768 11.2432 2.81079 8.72636 2.81079 5.62162Z" fill="white"/>
<path id="Vector (Stroke)_2" fill-rule="evenodd" clip-rule="evenodd" d="M11.0034 9.05692C11.3881 9.00588 11.7414 9.27638 11.7924 9.6611L12.6427 16.0697C12.6782 16.3372 12.5574 16.6014 12.3319 16.7495C12.1064 16.8976 11.8159 16.9035 11.5846 16.7647L8.4326 14.8735L5.28063 16.7647C5.04925 16.9036 4.75881 16.8976 4.53328 16.7495C4.30775 16.6013 4.18698 16.3371 4.2225 16.0696L5.07277 9.66802C5.12387 9.28331 5.47717 9.01286 5.86188 9.06396C6.24659 9.11506 6.51704 9.46835 6.46594 9.85307L5.80762 14.8096L8.07106 13.4515C8.2936 13.318 8.57161 13.318 8.79414 13.4515L11.0578 14.8097L10.3992 9.84594C10.3482 9.46122 10.6187 9.10796 11.0034 9.05692Z" fill="white"/>
</g>
<defs>
<clipPath id="clip0_480_16385">
<rect width="16.8649" height="16.8649" fill="white"/>
</clipPath>
</defs>
</svg>
