<svg width="12" height="12" viewBox="0 0 12 12" fill="none" xmlns="http://www.w3.org/2000/svg">
<path fill-rule="evenodd" clip-rule="evenodd" d="M1.5 2.625C1.70711 2.625 1.875 2.79289 1.875 3V6.75C1.875 6.95711 1.70711 7.125 1.5 7.125C1.29289 7.125 1.125 6.95711 1.125 6.75V3C1.125 2.79289 1.29289 2.625 1.5 2.625Z" fill="#524E4E"/>
<path fill-rule="evenodd" clip-rule="evenodd" d="M5.99995 8.62573C5.37531 8.62573 4.76055 8.78157 4.21135 9.07912C3.66214 9.37667 3.19585 9.80654 2.8547 10.3298C2.74159 10.5033 2.50925 10.5522 2.33576 10.4391C2.16227 10.326 2.11333 10.0937 2.22644 9.92016C2.63573 9.2924 3.19517 8.77667 3.85407 8.41968C4.51298 8.06269 5.25055 7.87573 5.99995 7.87573C6.74935 7.87573 7.48691 8.06269 8.14582 8.41968C8.80473 8.77667 9.36416 9.2924 9.77345 9.92016C9.88657 10.0937 9.83762 10.326 9.66413 10.4391C9.49064 10.5522 9.2583 10.5033 9.14519 10.3298C8.80404 9.80654 8.33775 9.37667 7.78854 9.07912C7.23934 8.78157 6.62458 8.62573 5.99995 8.62573Z" fill="#524E4E"/>
<path fill-rule="evenodd" clip-rule="evenodd" d="M5.88141 1.14424C5.95839 1.11859 6.04161 1.11859 6.11859 1.14424L10.6186 2.64424C10.7717 2.69529 10.875 2.83859 10.875 3C10.875 3.16141 10.7717 3.30471 10.6186 3.35576L6.11859 4.85576C6.04161 4.88141 5.95839 4.88141 5.88141 4.85576L1.38141 3.35576C1.22829 3.30471 1.125 3.16141 1.125 3C1.125 2.83859 1.22829 2.69529 1.38141 2.64424L5.88141 1.14424ZM2.68585 3L6 4.10472L9.31415 3L6 1.89528L2.68585 3Z" fill="#524E4E"/>
<path fill-rule="evenodd" clip-rule="evenodd" d="M4.31732 3.57647C4.47006 3.71634 4.4805 3.95354 4.34063 4.10628C4.04578 4.42827 3.85098 4.82908 3.77996 5.25985C3.70895 5.69062 3.7648 6.13275 3.9407 6.53234C4.1166 6.93192 4.40495 7.2717 4.77061 7.51025C5.13626 7.7488 5.56341 7.87582 6 7.87582C6.43659 7.87582 6.86375 7.7488 7.2294 7.51025C7.59505 7.2717 7.8834 6.93192 8.0593 6.53234C8.2352 6.13275 8.29105 5.69062 8.22004 5.25985C8.14903 4.82908 7.95422 4.42827 7.65938 4.10628C7.51951 3.95354 7.52994 3.71634 7.68268 3.57647C7.83543 3.4366 8.07263 3.44703 8.2125 3.59977C8.60563 4.02908 8.86537 4.5635 8.96005 5.13786C9.05474 5.71223 8.98027 6.30173 8.74574 6.83451C8.5112 7.36729 8.12673 7.82032 7.6392 8.13839C7.15166 8.45646 6.58212 8.62582 6 8.62582C5.41789 8.62582 4.84834 8.45646 4.36081 8.13839C3.87327 7.82032 3.4888 7.36729 3.25427 6.83451C3.01973 6.30173 2.94527 5.71223 3.03995 5.13786C3.13463 4.5635 3.39437 4.02908 3.7875 3.59977C3.92737 3.44703 4.16458 3.4366 4.31732 3.57647Z" fill="#524E4E"/>
</svg>
