<svg width="11" height="12" viewBox="0 0 11 12" fill="none" xmlns="http://www.w3.org/2000/svg">
<path fill-rule="evenodd" clip-rule="evenodd" d="M1.68929 3.06897C1.86496 3.06897 2.00736 3.21138 2.00736 3.38704V6.56778C2.00736 6.74344 1.86496 6.88585 1.68929 6.88585C1.51362 6.88585 1.37122 6.74344 1.37122 6.56778V3.38704C1.37122 3.21138 1.51362 3.06897 1.68929 3.06897Z" fill="black"/>
<path fill-rule="evenodd" clip-rule="evenodd" d="M5.50618 8.15873C4.97637 8.15873 4.45493 8.29091 3.9891 8.54329C3.52327 8.79567 3.12776 9.16028 2.8384 9.6041C2.74246 9.75125 2.54539 9.79276 2.39824 9.69682C2.25108 9.60088 2.20957 9.40381 2.30551 9.25666C2.65267 8.7242 3.12718 8.28675 3.68606 7.98396C4.24495 7.68116 4.87054 7.52258 5.50618 7.52258C6.14182 7.52258 6.76742 7.68116 7.3263 7.98396C7.88518 8.28675 8.3597 8.7242 8.70685 9.25666C8.80279 9.40381 8.76128 9.60088 8.61413 9.69682C8.46697 9.79276 8.26991 9.75125 8.17396 9.6041C7.88461 9.16028 7.4891 8.79567 7.02326 8.54329C6.55743 8.29091 6.03599 8.15873 5.50618 8.15873Z" fill="black"/>
<path fill-rule="evenodd" clip-rule="evenodd" d="M5.40559 1.81295C5.47088 1.79119 5.54146 1.79119 5.60675 1.81295L9.42363 3.08525C9.55352 3.12854 9.64112 3.25009 9.64112 3.387C9.64112 3.52391 9.55352 3.64545 9.42363 3.68875L5.60675 4.96104C5.54146 4.9828 5.47088 4.9828 5.40559 4.96104L1.58871 3.68875C1.45882 3.64545 1.37122 3.52391 1.37122 3.387C1.37122 3.25009 1.45882 3.12854 1.58871 3.08525L5.40559 1.81295ZM2.69513 3.387L5.50617 4.32401L8.31721 3.387L5.50617 2.44998L2.69513 3.387Z" fill="black"/>
<path fill-rule="evenodd" clip-rule="evenodd" d="M4.07892 3.8761C4.20848 3.99473 4.21733 4.19593 4.09869 4.32549C3.8486 4.59859 3.68337 4.93856 3.62314 5.30394C3.56291 5.66932 3.61028 6.04433 3.75948 6.38325C3.90867 6.72218 4.15325 7.01038 4.4634 7.21271C4.77354 7.41505 5.13586 7.52279 5.50617 7.52279C5.87648 7.52279 6.23879 7.41505 6.54894 7.21271C6.85908 7.01038 7.10366 6.72218 7.25286 6.38325C7.40206 6.04433 7.44943 5.66932 7.38919 5.30394C7.32896 4.93856 7.16373 4.59859 6.91364 4.32549C6.79501 4.19593 6.80386 3.99473 6.93341 3.8761C7.06297 3.75746 7.26416 3.76631 7.3828 3.89587C7.71625 4.26001 7.93656 4.71329 8.01687 5.20047C8.09718 5.68764 8.03402 6.18765 7.83509 6.63955C7.63616 7.09146 7.31005 7.47572 6.89653 7.7455C6.483 8.01529 5.99992 8.15893 5.50617 8.15893C5.01242 8.15893 4.52934 8.01529 4.11581 7.7455C3.70228 7.47572 3.37618 7.09146 3.17725 6.63955C2.97832 6.18765 2.91516 5.68764 2.99546 5.20047C3.07577 4.71329 3.29608 4.26001 3.62953 3.89587C3.74817 3.76631 3.94937 3.75746 4.07892 3.8761Z" fill="black"/>
</svg>
