<svg width="43" height="43" viewBox="0 0 43 43" fill="none" xmlns="http://www.w3.org/2000/svg">
<g id="More horiz" clip-path="url(#clip0_480_16619)">
<path id="Vector" d="M10.75 17.9167C8.77919 17.9167 7.16669 19.5292 7.16669 21.5C7.16669 23.4709 8.77919 25.0834 10.75 25.0834C12.7209 25.0834 14.3334 23.4709 14.3334 21.5C14.3334 19.5292 12.7209 17.9167 10.75 17.9167ZM32.25 17.9167C30.2792 17.9167 28.6667 19.5292 28.6667 21.5C28.6667 23.4709 30.2792 25.0834 32.25 25.0834C34.2209 25.0834 35.8334 23.4709 35.8334 21.5C35.8334 19.5292 34.2209 17.9167 32.25 17.9167ZM21.5 17.9167C19.5292 17.9167 17.9167 19.5292 17.9167 21.5C17.9167 23.4709 19.5292 25.0834 21.5 25.0834C23.4709 25.0834 25.0834 23.4709 25.0834 21.5C25.0834 19.5292 23.4709 17.9167 21.5 17.9167Z" fill="white"/>
</g>
<defs>
<clipPath id="clip0_480_16619">
<rect width="43" height="43" fill="white"/>
</clipPath>
</defs>
</svg>
