<svg width="11" height="11" viewBox="0 0 11 11" fill="none" xmlns="http://www.w3.org/2000/svg">
<g id="Icons/Feather/award" clip-path="url(#clip0_480_16517)">
<path id="Vector (Stroke)" fill-rule="evenodd" clip-rule="evenodd" d="M5.11551 0.852102C3.71018 0.852102 2.57093 1.99135 2.57093 3.39669C2.57093 4.80203 3.71018 5.94128 5.11551 5.94128C6.52085 5.94128 7.6601 4.80203 7.6601 3.39669C7.6601 1.99135 6.52085 0.852102 5.11551 0.852102ZM1.72273 3.39669C1.72273 1.52291 3.24173 0.00390625 5.11551 0.00390625C6.9893 0.00390625 8.5083 1.52291 8.5083 3.39669C8.5083 5.27047 6.9893 6.78947 5.11551 6.78947C3.24173 6.78947 1.72273 5.27047 1.72273 3.39669Z" fill="white"/>
<path id="Vector (Stroke)_2" fill-rule="evenodd" clip-rule="evenodd" d="M6.66706 5.46992C6.89924 5.43911 7.11244 5.60237 7.14325 5.83455L7.65641 9.70233C7.67782 9.86375 7.60492 10.0232 7.46881 10.1126C7.33271 10.202 7.15743 10.2055 7.0178 10.1218L5.1155 8.98039L3.21321 10.1218C3.07357 10.2056 2.89828 10.202 2.76217 10.1126C2.62606 10.0232 2.55317 9.8637 2.57461 9.70227L3.08777 5.83874C3.11861 5.60655 3.33183 5.44333 3.56401 5.47417C3.7962 5.50501 3.95942 5.71823 3.92858 5.95041L3.53126 8.94178L4.89731 8.12215C5.03161 8.04157 5.1994 8.04157 5.3337 8.12215L6.69988 8.94186L6.30242 5.94611C6.27162 5.71392 6.43487 5.50072 6.66706 5.46992Z" fill="white"/>
</g>
<defs>
<clipPath id="clip0_480_16517">
<rect width="10.1783" height="10.1783" fill="white" transform="translate(0.0263367 0.00390625)"/>
</clipPath>
</defs>
</svg>
