<svg width="56" height="48" viewBox="0 0 56 48" fill="none" xmlns="http://www.w3.org/2000/svg">
<path d="M28.2268 46.364C14.9485 46.364 0.623047 39.1712 0.623047 23.3881C0.623047 7.60494 14.9485 0.412109 28.2268 0.412109C35.6037 0.412109 42.4094 2.50831 47.4543 6.33078C52.9274 10.5232 55.8306 16.4418 55.8306 23.3881C55.8306 30.3343 52.9274 36.2119 47.4543 40.4042C42.4094 44.2267 35.5561 46.364 28.2268 46.364Z" fill="url(#paint0_radial_1482_16373)"/>
<path d="M28.2268 46.364C14.9485 46.364 0.623047 39.1712 0.623047 23.3881C0.623047 7.60494 14.9485 0.412109 28.2268 0.412109C35.6037 0.412109 42.4094 2.50831 47.4543 6.33078C52.9274 10.5232 55.8306 16.4418 55.8306 23.3881C55.8306 30.3343 52.9274 36.2119 47.4543 40.4042C42.4094 44.2267 35.5561 46.364 28.2268 46.364Z" fill="url(#paint1_linear_1482_16373)"/>
<path d="M51.0179 9.73047C53.5546 13.2652 54.8777 17.4741 54.8777 22.1556C54.8777 29.1018 51.9745 34.9794 46.5014 39.1717C41.4565 42.9942 34.6032 45.1315 27.2739 45.1315C18.6787 45.1315 9.66462 42.1105 4.34375 35.7027C9.46473 42.9613 19.0975 46.3646 28.2258 46.3646C35.555 46.3646 42.4084 44.2273 47.4532 40.4048C52.9264 36.2124 55.8295 30.3348 55.8295 23.3886C55.8295 18.1522 54.1781 13.4995 51.0179 9.73047Z" fill="#EB8F00"/>
<path opacity="0.66" d="M2 27.8772C2.47593 26.8044 4.57952 26.788 6.13581 27.4374C9.14842 28.6992 8.79148 31.4612 10.3002 32.012C11.8089 32.5628 16.5729 29.1883 23.2692 28.654C24.0211 28.5923 28.4615 28.1114 28.8994 29.7226C29.0707 30.3597 27.8143 30.483 27.8143 30.483C25.092 31.3544 22.3221 32.2422 19.8853 33.6191C17.1202 35.1768 14.7025 37.3799 11.49 38.0293C10.2383 38.28 8.82479 38.243 7.80631 37.5731C6.54034 36.751 6.25955 35.2426 5.7979 33.9315C5.26962 32.4312 4.39867 31.0338 3.24693 29.8213" fill="url(#paint2_linear_1482_16373)"/>
<path d="M0.983352 28.401C0.117165 29.3094 1.959 31.722 2.28739 32.951C3.07743 35.9185 2.28739 36.6502 2.22552 39.2889C2.17317 42.1907 3.17738 44.6321 5.73786 46.1899C8.14605 47.6655 10.797 47.834 14.5092 46.8886C18.2214 45.9433 20.7296 45.4871 20.9199 43.9088C21.0246 43.2552 20.6249 42.614 19.93 42.3345C20.3012 42.1825 20.5963 41.9235 20.7629 41.5988C21.6481 39.7739 19.8824 39.3875 19.8824 39.3875C20.1251 39.1368 20.3298 38.8614 20.4916 38.5655C21.0199 37.6572 20.9342 36.4241 19.4112 36.0213C18.7116 35.8363 18.5213 35.935 18.5213 35.935C19.2447 35.2938 20.1109 34.78 21.0675 34.4348C23.628 33.4853 26.6644 32.9099 27.4211 32.355C28.5205 31.533 28.5871 29.9506 26.6453 29.4779C23.8564 28.7709 18.7259 30.415 15.6038 32.1289C12.4817 33.8429 9.61667 34.7677 8.66481 34.4553C7.71296 34.1429 7.12281 33.6333 6.76111 32.4002C6.09005 30.1067 5.57129 29.2189 4.43382 28.3599C3.49149 27.6612 1.64965 27.7023 0.983352 28.401Z" fill="url(#paint3_radial_1482_16373)"/>
<path d="M16.4646 37.3129C16.4646 37.3129 15.765 36.9019 18.5587 34.9742C20.4624 33.6549 21.5618 33.4165 23.8415 32.9191C28.4485 31.945 28.1582 30.6914 28.1582 30.6914C28.4056 32.5369 26.2925 32.9479 24.7458 33.3671C24.5839 33.4082 24.4316 33.4617 24.2698 33.4946C18.9728 34.6618 17.1214 37.6787 16.4646 37.3129Z" fill="url(#paint4_linear_1482_16373)"/>
<path d="M20.8059 41.8857C21.2199 41.2938 21.3342 40.5746 21.1152 39.9087C20.9629 39.5182 20.6726 39.1771 20.2776 38.9428C20.3347 38.8771 20.3918 38.8154 20.4442 38.7414C20.8678 38.1701 20.9296 37.4508 20.6108 36.8302C20.2491 36.3411 19.6589 36.0164 18.9974 35.9424C19.4495 36.1315 19.7874 36.4808 19.9207 36.9001C19.9968 37.4056 19.9111 37.9235 19.6827 38.3921C19.3781 39.0332 18.6975 39.4813 17.9027 39.5717C16.751 39.769 17.1032 40.18 17.1032 40.18C17.2031 40.5088 18.5643 40.2046 19.597 39.5388C19.8874 39.6703 20.1063 39.8964 20.211 40.1635C20.3204 40.5787 20.2538 41.0185 20.0254 41.3966C19.7065 42.0008 19.0878 42.4529 18.3454 42.6297C17.3221 42.8722 17.6029 43.1969 17.6029 43.1969C17.6029 43.1969 17.6505 43.8956 19.7541 42.7447C20.0016 43.1558 20.33 44.0723 19.6732 44.6642C17.4458 46.6905 10.8828 47.4715 10.8828 47.4715C14.2143 47.4715 18.7927 46.3617 20.211 45.3465C20.7631 44.9725 21.0867 44.4053 21.0914 43.8011C21.1533 43.238 20.9106 42.679 20.4394 42.2844C20.5727 42.1611 20.6964 42.0296 20.8059 41.8857Z" fill="url(#paint5_linear_1482_16373)"/>
<path d="M34.5423 26.8459C34.39 26.8213 34.2472 26.7678 34.1282 26.6815C31.9818 25.1936 29.4213 24.2236 26.7038 23.8619C23.9862 23.455 21.1973 23.677 18.613 24.5031C18.4702 24.5525 18.3179 24.5689 18.1656 24.5483C17.8325 24.499 17.5612 24.2853 17.4708 24.0017C17.3803 23.7222 17.4898 23.4263 17.7468 23.2413C22.7916 19.6243 30.2732 20.2244 34.4614 24.5812C34.804 24.9388 35.1181 25.3169 35.4037 25.7074C35.5845 25.9499 35.5845 26.2623 35.4037 26.5048C35.2181 26.7555 34.8802 26.887 34.5423 26.8459Z" fill="#422B0D"/>
<path d="M36.4012 10.3203C38.3953 10.3203 40.2086 11.7753 40.2086 14.1921C40.2086 16.6089 38.3953 18.0598 36.4012 18.0598C34.407 18.0598 32.5938 16.6048 32.5938 14.1921C32.5938 11.7794 34.407 10.3203 36.4012 10.3203Z" fill="#422B0D"/>
<path d="M19.9187 6.5752C17.9246 6.5752 16.1113 8.0302 16.1113 10.4429C16.1113 12.8556 17.9246 14.3147 19.9187 14.3147C21.9176 14.3147 23.7262 12.8597 23.7262 10.4429C23.7262 8.02609 21.9176 6.5752 19.9187 6.5752Z" fill="#422B0D"/>
<path d="M16.8671 1.90356C16.653 1.59941 16.6244 1.22127 16.791 0.896569C16.9718 0.571864 17.3288 0.349914 17.7428 0.304702C20.3366 -0.0446643 22.9828 0.48555 25.134 1.78026C25.9383 2.25704 26.6522 2.83247 27.2566 3.49421C27.2947 3.53531 27.328 3.58052 27.3613 3.62984C27.685 4.06552 27.5755 4.64095 27.1091 4.96565C26.6094 5.32324 25.8764 5.31091 25.3958 4.93277L25.5956 4.65328L25.3529 4.89989C23.2684 3.39556 20.6603 2.53653 17.9475 2.46666C17.4954 2.46666 17.0765 2.26115 16.8481 1.92412L16.8671 1.90356Z" fill="#422B0D"/>
<path d="M42.2226 9.25713C42.5748 9.08861 42.8128 8.78034 42.8604 8.43509C42.8889 8.0775 42.7128 7.73225 42.3844 7.51441C40.3237 6.09639 37.7061 5.41821 35.0837 5.63194C34.1128 5.70181 33.161 5.8991 32.2567 6.21559L32.0854 6.28546C31.5571 6.52796 31.3239 7.07461 31.5428 7.55551C31.776 8.0775 32.409 8.37343 33.042 8.25424V7.92542L33.1086 8.24602C35.7738 7.81856 38.5294 8.17615 40.9329 9.26124C41.3279 9.45441 41.8086 9.45441 42.2036 9.26124L42.2226 9.25713Z" fill="#422B0D"/>
<defs>
<radialGradient id="paint0_radial_1482_16373" cx="0" cy="0" r="1" gradientUnits="userSpaceOnUse" gradientTransform="translate(28.2268 23.3881) scale(27.1087 23.4115)">
<stop offset="0.5" stop-color="#FDE030"/>
<stop offset="0.92" stop-color="#F7C02B"/>
<stop offset="1" stop-color="#F4A223"/>
</radialGradient>
<linearGradient id="paint1_linear_1482_16373" x1="28.2268" y1="46.364" x2="28.2268" y2="0.412109" gradientUnits="userSpaceOnUse">
<stop stop-color="#F4A223"/>
<stop offset="0.08" stop-color="#F7C02B"/>
<stop offset="0.54" stop-color="#FDE030" stop-opacity="0"/>
</linearGradient>
<linearGradient id="paint2_linear_1482_16373" x1="15.5608" y1="40.742" x2="15.472" y2="27.022" gradientUnits="userSpaceOnUse">
<stop stop-color="#BF360C"/>
<stop offset="1" stop-color="#BF360C" stop-opacity="0.2"/>
</linearGradient>
<radialGradient id="paint3_radial_1482_16373" cx="0" cy="0" r="1" gradientUnits="userSpaceOnUse" gradientTransform="translate(17.6836 31.7759) scale(28.1796 22.8762)">
<stop offset="0.27" stop-color="#FFF176"/>
<stop offset="1" stop-color="#FFC400"/>
</radialGradient>
<linearGradient id="paint4_linear_1482_16373" x1="16.6556" y1="36.4303" x2="27.887" y2="29.9717" gradientUnits="userSpaceOnUse">
<stop offset="0.13" stop-color="#DA6727"/>
<stop offset="1" stop-color="#FFC400"/>
</linearGradient>
<linearGradient id="paint5_linear_1482_16373" x1="16.0367" y1="46.6371" x2="16.1112" y2="31.0306" gradientUnits="userSpaceOnUse">
<stop offset="0.13" stop-color="#DA6727"/>
<stop offset="1" stop-color="#FFC400"/>
</linearGradient>
</defs>
</svg>
